<mxfile host="app.diagrams.net" modified="2024-02-22T07:10:47.213Z" agent="Mozilla/5.0 (Windows NT 10.0; Win64; x64) AppleWebKit/537.36 (KHTML, like Gecko) Chrome/120.0.0.0 Safari/537.36" etag="sg_SeJwMoXPJ51kLctfY" version="23.1.5" type="github">
  <diagram name="第 1 页" id="kc1cU_msiuEV9yWqQzwE">
    <mxGraphModel dx="1235" dy="2089" grid="1" gridSize="10" guides="1" tooltips="1" connect="1" arrows="1" fold="1" page="1" pageScale="1" pageWidth="827" pageHeight="1169" math="0" shadow="0">
      <root>
        <mxCell id="0" />
        <mxCell id="1" parent="0" />
        <mxCell id="Ti-5W8SZTmlNvOi37wGD-39" value="&lt;font style=&quot;font-size: 16px;&quot;&gt;答题前检查&lt;/font&gt;" style="rounded=1;whiteSpace=wrap;html=1;arcSize=22;fillColor=#dae8fc;strokeColor=#6c8ebf;" vertex="1" parent="1">
          <mxGeometry x="250" y="20" width="90" height="70" as="geometry" />
        </mxCell>
        <mxCell id="Ti-5W8SZTmlNvOi37wGD-38" value="&lt;font style=&quot;font-size: 16px;&quot;&gt;检查赋值&lt;/font&gt;" style="rounded=1;whiteSpace=wrap;html=1;arcSize=22;fillColor=#dae8fc;strokeColor=#6c8ebf;" vertex="1" parent="1">
          <mxGeometry x="230" y="30" width="90" height="70" as="geometry" />
        </mxCell>
        <mxCell id="iWW-S0E6aqb98GSkMhKx-111" value="" style="whiteSpace=wrap;html=1;shape=mxgraph.basic.cloud_rect;strokeColor=#CCCCFF;" parent="1" vertex="1">
          <mxGeometry x="570" y="350" width="180" height="260" as="geometry" />
        </mxCell>
        <mxCell id="iWW-S0E6aqb98GSkMhKx-15" style="edgeStyle=orthogonalEdgeStyle;rounded=0;orthogonalLoop=1;jettySize=auto;html=1;entryX=0.5;entryY=0;entryDx=0;entryDy=0;fillColor=#f5f5f5;strokeColor=#666666;" parent="1" source="iWW-S0E6aqb98GSkMhKx-3" target="iWW-S0E6aqb98GSkMhKx-4" edge="1">
          <mxGeometry relative="1" as="geometry" />
        </mxCell>
        <mxCell id="iWW-S0E6aqb98GSkMhKx-50" style="edgeStyle=orthogonalEdgeStyle;rounded=0;orthogonalLoop=1;jettySize=auto;html=1;entryX=0.5;entryY=0;entryDx=0;entryDy=0;" parent="1" source="iWW-S0E6aqb98GSkMhKx-4" target="iWW-S0E6aqb98GSkMhKx-26" edge="1">
          <mxGeometry relative="1" as="geometry" />
        </mxCell>
        <mxCell id="iWW-S0E6aqb98GSkMhKx-55" style="rounded=0;orthogonalLoop=1;jettySize=auto;html=1;entryX=1;entryY=0.25;entryDx=0;entryDy=0;edgeStyle=orthogonalEdgeStyle;curved=1;fillColor=#fff2cc;strokeColor=#d6b656;" parent="1" source="iWW-S0E6aqb98GSkMhKx-4" target="iWW-S0E6aqb98GSkMhKx-27" edge="1">
          <mxGeometry relative="1" as="geometry">
            <Array as="points">
              <mxPoint x="350" y="185" />
              <mxPoint x="350" y="393" />
            </Array>
          </mxGeometry>
        </mxCell>
        <mxCell id="iWW-S0E6aqb98GSkMhKx-4" value="&lt;font style=&quot;font-size: 18px;&quot;&gt;Q1&lt;/font&gt;" style="rounded=1;whiteSpace=wrap;html=1;" parent="1" vertex="1">
          <mxGeometry x="210" y="150" width="90" height="70" as="geometry" />
        </mxCell>
        <mxCell id="iWW-S0E6aqb98GSkMhKx-25" style="edgeStyle=orthogonalEdgeStyle;rounded=0;orthogonalLoop=1;jettySize=auto;html=1;entryX=0.5;entryY=0;entryDx=0;entryDy=0;fillColor=#f5f5f5;strokeColor=#666666;" parent="1" target="iWW-S0E6aqb98GSkMhKx-26" edge="1">
          <mxGeometry relative="1" as="geometry">
            <mxPoint x="255" y="250" as="sourcePoint" />
          </mxGeometry>
        </mxCell>
        <mxCell id="iWW-S0E6aqb98GSkMhKx-28" value="" style="edgeStyle=orthogonalEdgeStyle;rounded=0;orthogonalLoop=1;jettySize=auto;html=1;" parent="1" source="iWW-S0E6aqb98GSkMhKx-26" target="iWW-S0E6aqb98GSkMhKx-27" edge="1">
          <mxGeometry relative="1" as="geometry" />
        </mxCell>
        <mxCell id="iWW-S0E6aqb98GSkMhKx-26" value="&lt;font style=&quot;font-size: 18px;&quot;&gt;Q2&lt;/font&gt;" style="rounded=1;whiteSpace=wrap;html=1;" parent="1" vertex="1">
          <mxGeometry x="210" y="260" width="90" height="70" as="geometry" />
        </mxCell>
        <mxCell id="iWW-S0E6aqb98GSkMhKx-30" value="" style="edgeStyle=orthogonalEdgeStyle;rounded=0;orthogonalLoop=1;jettySize=auto;html=1;" parent="1" source="iWW-S0E6aqb98GSkMhKx-27" target="iWW-S0E6aqb98GSkMhKx-29" edge="1">
          <mxGeometry relative="1" as="geometry" />
        </mxCell>
        <mxCell id="iWW-S0E6aqb98GSkMhKx-27" value="&lt;span style=&quot;font-size: 18px;&quot;&gt;Q3&lt;/span&gt;" style="rounded=1;whiteSpace=wrap;html=1;" parent="1" vertex="1">
          <mxGeometry x="210" y="375" width="90" height="70" as="geometry" />
        </mxCell>
        <mxCell id="iWW-S0E6aqb98GSkMhKx-32" value="" style="edgeStyle=orthogonalEdgeStyle;rounded=0;orthogonalLoop=1;jettySize=auto;html=1;" parent="1" source="iWW-S0E6aqb98GSkMhKx-29" target="iWW-S0E6aqb98GSkMhKx-31" edge="1">
          <mxGeometry relative="1" as="geometry" />
        </mxCell>
        <mxCell id="iWW-S0E6aqb98GSkMhKx-29" value="&lt;font style=&quot;font-size: 18px;&quot;&gt;Q4&lt;/font&gt;" style="rounded=1;whiteSpace=wrap;html=1;" parent="1" vertex="1">
          <mxGeometry x="210" y="475" width="90" height="70" as="geometry" />
        </mxCell>
        <mxCell id="iWW-S0E6aqb98GSkMhKx-31" value="&lt;font style=&quot;font-size: 18px;&quot;&gt;Q5&lt;/font&gt;" style="rounded=1;whiteSpace=wrap;html=1;" parent="1" vertex="1">
          <mxGeometry x="210" y="585" width="90" height="70" as="geometry" />
        </mxCell>
        <mxCell id="iWW-S0E6aqb98GSkMhKx-39" value="" style="edgeStyle=orthogonalEdgeStyle;rounded=0;orthogonalLoop=1;jettySize=auto;html=1;" parent="1" source="iWW-S0E6aqb98GSkMhKx-33" target="iWW-S0E6aqb98GSkMhKx-38" edge="1">
          <mxGeometry relative="1" as="geometry" />
        </mxCell>
        <mxCell id="iWW-S0E6aqb98GSkMhKx-65" style="edgeStyle=orthogonalEdgeStyle;rounded=0;orthogonalLoop=1;jettySize=auto;html=1;entryX=0;entryY=0.5;entryDx=0;entryDy=0;exitX=0;exitY=0.25;exitDx=0;exitDy=0;curved=1;fillColor=#fff2cc;strokeColor=#d6b656;" parent="1" source="iWW-S0E6aqb98GSkMhKx-33" target="iWW-S0E6aqb98GSkMhKx-4" edge="1">
          <mxGeometry relative="1" as="geometry">
            <Array as="points">
              <mxPoint x="110" y="878" />
              <mxPoint x="110" y="185" />
            </Array>
          </mxGeometry>
        </mxCell>
        <mxCell id="iWW-S0E6aqb98GSkMhKx-33" value="&lt;span style=&quot;font-size: 18px;&quot;&gt;Q10&lt;/span&gt;" style="rounded=1;whiteSpace=wrap;html=1;" parent="1" vertex="1">
          <mxGeometry x="170.00000000000003" y="860" width="90" height="70" as="geometry" />
        </mxCell>
        <mxCell id="iWW-S0E6aqb98GSkMhKx-36" value="" style="rounded=0;orthogonalLoop=1;jettySize=auto;html=1;fillColor=#ffcd28;gradientColor=#ffa500;strokeColor=#d79b00;" parent="1" source="iWW-S0E6aqb98GSkMhKx-31" target="iWW-S0E6aqb98GSkMhKx-37" edge="1">
          <mxGeometry relative="1" as="geometry">
            <mxPoint x="414" y="850" as="sourcePoint" />
          </mxGeometry>
        </mxCell>
        <mxCell id="iWW-S0E6aqb98GSkMhKx-41" value="" style="edgeStyle=orthogonalEdgeStyle;rounded=0;orthogonalLoop=1;jettySize=auto;html=1;" parent="1" source="iWW-S0E6aqb98GSkMhKx-37" target="iWW-S0E6aqb98GSkMhKx-40" edge="1">
          <mxGeometry relative="1" as="geometry" />
        </mxCell>
        <mxCell id="iWW-S0E6aqb98GSkMhKx-37" value="&lt;font style=&quot;font-size: 18px;&quot;&gt;Q8&lt;/font&gt;" style="rounded=1;whiteSpace=wrap;html=1;" parent="1" vertex="1">
          <mxGeometry x="368" y="860" width="90" height="70" as="geometry" />
        </mxCell>
        <mxCell id="iWW-S0E6aqb98GSkMhKx-44" style="rounded=0;orthogonalLoop=1;jettySize=auto;html=1;strokeColor=default;entryX=0.173;entryY=0.094;entryDx=0;entryDy=0;entryPerimeter=0;exitX=0.669;exitY=1.007;exitDx=0;exitDy=0;exitPerimeter=0;" parent="1" source="iWW-S0E6aqb98GSkMhKx-38" target="iWW-S0E6aqb98GSkMhKx-42" edge="1">
          <mxGeometry relative="1" as="geometry" />
        </mxCell>
        <mxCell id="Ti-5W8SZTmlNvOi37wGD-48" style="rounded=0;orthogonalLoop=1;jettySize=auto;html=1;entryX=0.5;entryY=0;entryDx=0;entryDy=0;" edge="1" parent="1" source="iWW-S0E6aqb98GSkMhKx-38" target="Ti-5W8SZTmlNvOi37wGD-47">
          <mxGeometry relative="1" as="geometry" />
        </mxCell>
        <mxCell id="iWW-S0E6aqb98GSkMhKx-38" value="&lt;font style=&quot;font-size: 18px;&quot;&gt;Q11&lt;/font&gt;" style="rounded=1;whiteSpace=wrap;html=1;" parent="1" vertex="1">
          <mxGeometry x="170.00000000000003" y="970" width="90" height="70" as="geometry" />
        </mxCell>
        <mxCell id="iWW-S0E6aqb98GSkMhKx-43" value="" style="rounded=1;orthogonalLoop=1;jettySize=auto;html=1;entryX=0.5;entryY=0;entryDx=0;entryDy=0;" parent="1" source="iWW-S0E6aqb98GSkMhKx-40" target="iWW-S0E6aqb98GSkMhKx-42" edge="1">
          <mxGeometry relative="1" as="geometry">
            <Array as="points" />
          </mxGeometry>
        </mxCell>
        <mxCell id="iWW-S0E6aqb98GSkMhKx-75" style="edgeStyle=orthogonalEdgeStyle;rounded=0;orthogonalLoop=1;jettySize=auto;html=1;fillColor=#fad7ac;strokeColor=#b46504;" parent="1" source="iWW-S0E6aqb98GSkMhKx-40" target="iWW-S0E6aqb98GSkMhKx-38" edge="1">
          <mxGeometry relative="1" as="geometry" />
        </mxCell>
        <mxCell id="iWW-S0E6aqb98GSkMhKx-40" value="&lt;font style=&quot;font-size: 18px;&quot;&gt;Q9&lt;/font&gt;" style="rounded=1;whiteSpace=wrap;html=1;" parent="1" vertex="1">
          <mxGeometry x="368" y="970" width="90" height="70" as="geometry" />
        </mxCell>
        <mxCell id="iWW-S0E6aqb98GSkMhKx-42" value="&lt;span style=&quot;font-size: 18px;&quot;&gt;默认结果页&lt;/span&gt;" style="rounded=1;whiteSpace=wrap;html=1;arcSize=50;fillColor=#d80073;fontColor=#ffffff;strokeColor=#A50040;" parent="1" vertex="1">
          <mxGeometry x="430" y="1170" width="110" height="70" as="geometry" />
        </mxCell>
        <mxCell id="Ti-5W8SZTmlNvOi37wGD-15" style="edgeStyle=orthogonalEdgeStyle;rounded=0;orthogonalLoop=1;jettySize=auto;html=1;" edge="1" parent="1" source="iWW-S0E6aqb98GSkMhKx-48" target="iWW-S0E6aqb98GSkMhKx-53">
          <mxGeometry relative="1" as="geometry" />
        </mxCell>
        <mxCell id="iWW-S0E6aqb98GSkMhKx-48" value="&lt;font style=&quot;font-size: 14px;&quot;&gt;Q3.1&lt;/font&gt;" style="rhombus;whiteSpace=wrap;html=1;rounded=1;fillColor=#d0cee2;strokeColor=#56517e;" parent="1" vertex="1">
          <mxGeometry x="580" y="360" width="70" height="70" as="geometry" />
        </mxCell>
        <mxCell id="iWW-S0E6aqb98GSkMhKx-53" value="&lt;font style=&quot;font-size: 14px;&quot;&gt;Q3.2&lt;/font&gt;" style="rhombus;whiteSpace=wrap;html=1;rounded=1;fillColor=#d0cee2;strokeColor=#56517e;" parent="1" vertex="1">
          <mxGeometry x="580" y="445" width="70" height="65" as="geometry" />
        </mxCell>
        <mxCell id="iWW-S0E6aqb98GSkMhKx-64" value="" style="edgeStyle=orthogonalEdgeStyle;rounded=0;orthogonalLoop=1;jettySize=auto;html=1;" parent="1" source="iWW-S0E6aqb98GSkMhKx-57" target="iWW-S0E6aqb98GSkMhKx-63" edge="1">
          <mxGeometry relative="1" as="geometry" />
        </mxCell>
        <mxCell id="iWW-S0E6aqb98GSkMhKx-57" value="&lt;span style=&quot;font-size: 18px;&quot;&gt;Q6(组)&lt;/span&gt;" style="rounded=1;whiteSpace=wrap;html=1;fillColor=#f8cecc;strokeColor=#b85450;" parent="1" vertex="1">
          <mxGeometry x="368" y="515" width="90" height="70" as="geometry" />
        </mxCell>
        <mxCell id="iWW-S0E6aqb98GSkMhKx-59" value="" style="endArrow=classic;html=1;rounded=0;entryX=0.5;entryY=0;entryDx=0;entryDy=0;exitX=1;exitY=0.75;exitDx=0;exitDy=0;fillColor=#fff2cc;strokeColor=#d6b656;" parent="1" source="iWW-S0E6aqb98GSkMhKx-27" target="iWW-S0E6aqb98GSkMhKx-57" edge="1">
          <mxGeometry width="50" height="50" relative="1" as="geometry">
            <mxPoint x="288.9999999999998" y="409.58" as="sourcePoint" />
            <mxPoint x="408.5799999999997" y="475.00000000000006" as="targetPoint" />
          </mxGeometry>
        </mxCell>
        <mxCell id="iWW-S0E6aqb98GSkMhKx-63" value="&lt;span style=&quot;font-size: 18px;&quot;&gt;Q7(组)&lt;/span&gt;" style="rounded=1;whiteSpace=wrap;html=1;fillColor=#f8cecc;strokeColor=#b85450;" parent="1" vertex="1">
          <mxGeometry x="369" y="620" width="90" height="70" as="geometry" />
        </mxCell>
        <mxCell id="iWW-S0E6aqb98GSkMhKx-66" value="选择1" style="text;strokeColor=none;align=center;fillColor=none;html=1;verticalAlign=middle;whiteSpace=wrap;rounded=0;fontSize=18;fontColor=#FFB366;" parent="1" vertex="1">
          <mxGeometry x="360" y="260" width="50" height="20" as="geometry" />
        </mxCell>
        <mxCell id="iWW-S0E6aqb98GSkMhKx-67" value="题5选1,题10未答" style="text;strokeColor=none;align=center;fillColor=none;html=1;verticalAlign=middle;whiteSpace=wrap;rounded=0;fontSize=18;fontColor=#FFB366;rotation=-65;" parent="1" vertex="1">
          <mxGeometry x="-30.000000000000004" y="369.99999999999994" width="211.67" height="54.68" as="geometry" />
        </mxCell>
        <mxCell id="iWW-S0E6aqb98GSkMhKx-72" value="未答" style="text;strokeColor=none;align=center;fillColor=none;html=1;verticalAlign=middle;whiteSpace=wrap;rounded=0;fontSize=18;fontColor=#FFB366;rotation=30;" parent="1" vertex="1">
          <mxGeometry x="350" y="450" width="50" height="20" as="geometry" />
        </mxCell>
        <mxCell id="iWW-S0E6aqb98GSkMhKx-78" value="&lt;font color=&quot;#ff0000&quot; style=&quot;font-size: 16px;&quot;&gt;简单逻辑直接展示&lt;br&gt;hover展示具体信息&lt;br&gt;&lt;/font&gt;" style="shape=callout;whiteSpace=wrap;html=1;perimeter=calloutPerimeter;position2=0.07;size=20;position=0.1;strokeColor=#FF0000;" parent="1" vertex="1">
          <mxGeometry x="350" y="170" width="145" height="70" as="geometry" />
        </mxCell>
        <mxCell id="iWW-S0E6aqb98GSkMhKx-82" value="&lt;font color=&quot;#ff0000&quot;&gt;&lt;span style=&quot;font-size: 16px;&quot;&gt;该框表示注释&lt;/span&gt;&lt;/font&gt;" style="shape=callout;whiteSpace=wrap;html=1;perimeter=calloutPerimeter;position2=0.18;size=20;position=0.18;strokeColor=#FF0000;" parent="1" vertex="1">
          <mxGeometry x="20.83" y="-220" width="110" height="50" as="geometry" />
        </mxCell>
        <mxCell id="iWW-S0E6aqb98GSkMhKx-83" value="&lt;font color=&quot;#ff0000&quot; style=&quot;font-size: 16px;&quot;&gt;分组/文件夹 相同的颜色&lt;/font&gt;" style="shape=callout;whiteSpace=wrap;html=1;perimeter=calloutPerimeter;position2=0;size=20;position=0.06;strokeColor=#FF0000;" parent="1" vertex="1">
          <mxGeometry x="430" y="447.5" width="100" height="65" as="geometry" />
        </mxCell>
        <mxCell id="iWW-S0E6aqb98GSkMhKx-84" value="&lt;font color=&quot;#ff0000&quot; style=&quot;font-size: 16px;&quot;&gt;复杂逻辑, 使用不同的颜色表示因素,&lt;br&gt;红色为本身, 蓝色其他题, 黄色自定义函数, 绿色缓存查数,灰色L对象&lt;br&gt;&lt;/font&gt;" style="shape=callout;whiteSpace=wrap;html=1;perimeter=calloutPerimeter;position2=0;size=20;position=0.06;strokeColor=#FF0000;align=left;" parent="1" vertex="1">
          <mxGeometry x="392.5" y="710" width="270" height="90" as="geometry" />
        </mxCell>
        <mxCell id="iWW-S0E6aqb98GSkMhKx-87" value="" style="ellipse;whiteSpace=wrap;html=1;aspect=fixed;strokeColor=#FF6666;direction=south;" parent="1" vertex="1">
          <mxGeometry x="335" y="740" width="15" height="15" as="geometry" />
        </mxCell>
        <mxCell id="iWW-S0E6aqb98GSkMhKx-90" value="" style="ellipse;whiteSpace=wrap;html=1;aspect=fixed;strokeColor=#3399FF;" parent="1" vertex="1">
          <mxGeometry x="350" y="760" width="15" height="15" as="geometry" />
        </mxCell>
        <mxCell id="iWW-S0E6aqb98GSkMhKx-91" value="" style="ellipse;whiteSpace=wrap;html=1;aspect=fixed;strokeColor=#CCCC00;" parent="1" vertex="1">
          <mxGeometry x="364" y="785" width="15" height="15" as="geometry" />
        </mxCell>
        <mxCell id="iWW-S0E6aqb98GSkMhKx-92" value="" style="ellipse;whiteSpace=wrap;html=1;aspect=fixed;strokeColor=#00CC00;" parent="1" vertex="1">
          <mxGeometry x="377.5" y="805" width="15" height="15" as="geometry" />
        </mxCell>
        <mxCell id="iWW-S0E6aqb98GSkMhKx-93" value="" style="ellipse;whiteSpace=wrap;html=1;aspect=fixed;strokeColor=#B3B3B3;" parent="1" vertex="1">
          <mxGeometry x="392.5" y="830" width="15" height="15" as="geometry" />
        </mxCell>
        <mxCell id="iWW-S0E6aqb98GSkMhKx-96" value="&lt;font color=&quot;#ff0000&quot; style=&quot;font-size: 16px;&quot;&gt;嵌套子题&lt;/font&gt;" style="shape=callout;whiteSpace=wrap;html=1;perimeter=calloutPerimeter;position2=0;size=20;position=0.09;strokeColor=#FF0000;base=11;" parent="1" vertex="1">
          <mxGeometry x="660" y="370" width="80" height="50" as="geometry" />
        </mxCell>
        <mxCell id="iWW-S0E6aqb98GSkMhKx-99" value="" style="verticalLabelPosition=bottom;verticalAlign=top;html=1;shape=mxgraph.basic.6_point_star" parent="1" vertex="1">
          <mxGeometry x="449" y="960" width="21" height="20" as="geometry" />
        </mxCell>
        <mxCell id="iWW-S0E6aqb98GSkMhKx-101" value="&lt;font color=&quot;#ff0000&quot; style=&quot;font-size: 16px;&quot;&gt;显示规则&lt;br&gt;&lt;/font&gt;" style="shape=callout;whiteSpace=wrap;html=1;perimeter=calloutPerimeter;position2=0;size=20;position=0.06;strokeColor=#FF0000;align=left;base=11;" parent="1" vertex="1">
          <mxGeometry x="500" y="820" width="70" height="50" as="geometry" />
        </mxCell>
        <mxCell id="iWW-S0E6aqb98GSkMhKx-105" value="Q8 = 1" style="html=1;shadow=0;dashed=0;align=center;verticalAlign=middle;shape=mxgraph.arrows2.tailedArrow;dy1=10;dx1=20;notch=0;arrowHead=20;dx2=25;dy2=30;" parent="1" vertex="1">
          <mxGeometry x="452" y="1030" width="50" height="10" as="geometry" />
        </mxCell>
        <mxCell id="iWW-S0E6aqb98GSkMhKx-106" value="&lt;font color=&quot;#ff0000&quot; style=&quot;font-size: 16px;&quot;&gt;向其他题赋值&lt;br&gt;&lt;/font&gt;" style="shape=callout;whiteSpace=wrap;html=1;perimeter=calloutPerimeter;position2=0.07;size=20;position=0.16;strokeColor=#FF0000;align=left;base=21;" parent="1" vertex="1">
          <mxGeometry x="495" y="980" width="110" height="50" as="geometry" />
        </mxCell>
        <mxCell id="iWW-S0E6aqb98GSkMhKx-108" value="Q6选1" style="html=1;shadow=0;dashed=0;align=center;verticalAlign=middle;shape=mxgraph.arrows2.arrow;dy=0.6;dx=40;flipH=1;notch=0;" parent="1" vertex="1">
          <mxGeometry x="446" y="862.5" width="62" height="40" as="geometry" />
        </mxCell>
        <mxCell id="iWW-S0E6aqb98GSkMhKx-110" value="&lt;font color=&quot;#ff0000&quot; style=&quot;font-size: 16px;&quot;&gt;检查点&lt;br&gt;&lt;/font&gt;" style="shape=callout;whiteSpace=wrap;html=1;perimeter=calloutPerimeter;position2=0;size=20;position=0.06;strokeColor=#FF0000;align=left;base=16;" parent="1" vertex="1">
          <mxGeometry x="470" y="920" width="60" height="50" as="geometry" />
        </mxCell>
        <mxCell id="Ti-5W8SZTmlNvOi37wGD-1" value="" style="whiteSpace=wrap;html=1;shape=mxgraph.basic.cloud_rect;strokeColor=#CCCCFF;" vertex="1" parent="1">
          <mxGeometry x="670" y="440" width="70" height="160" as="geometry" />
        </mxCell>
        <mxCell id="Ti-5W8SZTmlNvOi37wGD-19" style="edgeStyle=orthogonalEdgeStyle;rounded=0;orthogonalLoop=1;jettySize=auto;html=1;" edge="1" parent="1" target="Ti-5W8SZTmlNvOi37wGD-18">
          <mxGeometry relative="1" as="geometry">
            <mxPoint x="705" y="520" as="sourcePoint" />
            <Array as="points">
              <mxPoint x="705" y="520" />
              <mxPoint x="705" y="520" />
            </Array>
          </mxGeometry>
        </mxCell>
        <mxCell id="Ti-5W8SZTmlNvOi37wGD-21" style="edgeStyle=orthogonalEdgeStyle;rounded=0;orthogonalLoop=1;jettySize=auto;html=1;" edge="1" parent="1" source="Ti-5W8SZTmlNvOi37wGD-17" target="Ti-5W8SZTmlNvOi37wGD-18">
          <mxGeometry relative="1" as="geometry" />
        </mxCell>
        <mxCell id="Ti-5W8SZTmlNvOi37wGD-17" value="&lt;font style=&quot;font-size: 14px;&quot;&gt;Q3.2&lt;/font&gt;" style="rhombus;whiteSpace=wrap;html=1;rounded=1;fillColor=#d0cee2;strokeColor=#56517e;" vertex="1" parent="1">
          <mxGeometry x="670" y="450" width="70" height="65" as="geometry" />
        </mxCell>
        <mxCell id="Ti-5W8SZTmlNvOi37wGD-18" value="&lt;font style=&quot;font-size: 14px;&quot;&gt;Q3.2&lt;/font&gt;" style="rhombus;whiteSpace=wrap;html=1;rounded=1;fillColor=#d0cee2;strokeColor=#56517e;" vertex="1" parent="1">
          <mxGeometry x="670" y="530" width="70" height="65" as="geometry" />
        </mxCell>
        <mxCell id="Ti-5W8SZTmlNvOi37wGD-31" value="" style="endArrow=none;html=1;rounded=0;fillColor=#f8cecc;strokeColor=#b85450;entryX=0.477;entryY=0.976;entryDx=0;entryDy=0;entryPerimeter=0;" edge="1" parent="1" target="iWW-S0E6aqb98GSkMhKx-31">
          <mxGeometry width="50" height="50" relative="1" as="geometry">
            <mxPoint x="240" y="700" as="sourcePoint" />
            <mxPoint x="250" y="660" as="targetPoint" />
          </mxGeometry>
        </mxCell>
        <mxCell id="Ti-5W8SZTmlNvOi37wGD-32" value="" style="endArrow=none;html=1;rounded=0;fillColor=#dae8fc;strokeColor=#6c8ebf;" edge="1" parent="1">
          <mxGeometry width="50" height="50" relative="1" as="geometry">
            <mxPoint x="230" y="740" as="sourcePoint" />
            <mxPoint x="240" y="700" as="targetPoint" />
          </mxGeometry>
        </mxCell>
        <mxCell id="Ti-5W8SZTmlNvOi37wGD-34" value="" style="endArrow=none;html=1;rounded=0;fillColor=#fff2cc;strokeColor=#d6b656;" edge="1" parent="1">
          <mxGeometry width="50" height="50" relative="1" as="geometry">
            <mxPoint x="220" y="780" as="sourcePoint" />
            <mxPoint x="230" y="740" as="targetPoint" />
          </mxGeometry>
        </mxCell>
        <mxCell id="Ti-5W8SZTmlNvOi37wGD-35" value="" style="endArrow=none;html=1;rounded=0;fillColor=#d5e8d4;strokeColor=#82b366;" edge="1" parent="1">
          <mxGeometry width="50" height="50" relative="1" as="geometry">
            <mxPoint x="210" y="820" as="sourcePoint" />
            <mxPoint x="220" y="780" as="targetPoint" />
          </mxGeometry>
        </mxCell>
        <mxCell id="Ti-5W8SZTmlNvOi37wGD-36" value="" style="endArrow=classic;html=1;rounded=0;entryX=0.333;entryY=0;entryDx=0;entryDy=0;entryPerimeter=0;fillColor=#f5f5f5;strokeColor=#666666;" edge="1" parent="1" target="iWW-S0E6aqb98GSkMhKx-33">
          <mxGeometry width="50" height="50" relative="1" as="geometry">
            <mxPoint x="210" y="820" as="sourcePoint" />
            <mxPoint x="251.67" y="785" as="targetPoint" />
          </mxGeometry>
        </mxCell>
        <mxCell id="Ti-5W8SZTmlNvOi37wGD-37" value="&lt;div style=&quot;&quot;&gt;&lt;span style=&quot;font-size: 16px; color: rgb(255, 0, 0); background-color: initial;&quot;&gt;彩色线条&lt;/span&gt;&lt;/div&gt;" style="shape=callout;whiteSpace=wrap;html=1;perimeter=calloutPerimeter;position2=1;size=15;position=0.71;strokeColor=#FF0000;align=center;base=10;rotation=0;" vertex="1" parent="1">
          <mxGeometry x="140" y="730" width="70" height="42.5" as="geometry" />
        </mxCell>
        <mxCell id="iWW-S0E6aqb98GSkMhKx-3" value="&lt;font style=&quot;font-size: 16px;&quot;&gt;答题前检查&lt;/font&gt;" style="rounded=1;whiteSpace=wrap;html=1;arcSize=22;fillColor=#dae8fc;strokeColor=#6c8ebf;" parent="1" vertex="1">
          <mxGeometry x="210" y="40" width="90" height="70" as="geometry" />
        </mxCell>
        <mxCell id="Ti-5W8SZTmlNvOi37wGD-41" value="&lt;font color=&quot;#ff0000&quot; style=&quot;font-size: 16px;&quot;&gt;检查赋值等工作,&lt;br&gt;层叠展示,hover放大&lt;br&gt;&lt;/font&gt;" style="shape=callout;whiteSpace=wrap;html=1;perimeter=calloutPerimeter;position2=0;size=20;position=0.06;strokeColor=#FF0000;" vertex="1" parent="1">
          <mxGeometry x="350" y="-30" width="165" height="70" as="geometry" />
        </mxCell>
        <mxCell id="Ti-5W8SZTmlNvOi37wGD-43" value="" style="endArrow=classic;startArrow=classic;html=1;rounded=0;entryX=-0.031;entryY=0.243;entryDx=0;entryDy=0;entryPerimeter=0;" edge="1" parent="1" target="iWW-S0E6aqb98GSkMhKx-111">
          <mxGeometry width="50" height="50" relative="1" as="geometry">
            <mxPoint x="300" y="411.16999999999996" as="sourcePoint" />
            <mxPoint x="560" y="408.83" as="targetPoint" />
          </mxGeometry>
        </mxCell>
        <mxCell id="Ti-5W8SZTmlNvOi37wGD-44" value="&lt;font color=&quot;#ff0000&quot;&gt;&lt;span style=&quot;font-size: 16px;&quot;&gt;双向线表示子题会回来&lt;/span&gt;&lt;/font&gt;" style="shape=callout;whiteSpace=wrap;html=1;perimeter=calloutPerimeter;position2=0.03;size=20;position=0.09;strokeColor=#FF0000;base=11;" vertex="1" parent="1">
          <mxGeometry x="368" y="360" width="167.5" height="50" as="geometry" />
        </mxCell>
        <mxCell id="Ti-5W8SZTmlNvOi37wGD-45" value="" style="endArrow=classic;startArrow=classic;html=1;rounded=0;exitX=0.927;exitY=0.465;exitDx=0;exitDy=0;exitPerimeter=0;entryX=0.011;entryY=0.22;entryDx=0;entryDy=0;entryPerimeter=0;" edge="1" parent="1" source="iWW-S0E6aqb98GSkMhKx-53" target="Ti-5W8SZTmlNvOi37wGD-1">
          <mxGeometry width="50" height="50" relative="1" as="geometry">
            <mxPoint x="310" y="421.16999999999996" as="sourcePoint" />
            <mxPoint x="574" y="423" as="targetPoint" />
          </mxGeometry>
        </mxCell>
        <mxCell id="Ti-5W8SZTmlNvOi37wGD-47" value="&lt;span style=&quot;font-size: 18px;&quot;&gt;结果页&lt;/span&gt;" style="rounded=1;whiteSpace=wrap;html=1;arcSize=50;fillColor=#d80073;fontColor=#ffffff;strokeColor=#A50040;" vertex="1" parent="1">
          <mxGeometry x="120" y="1170" width="100" height="70" as="geometry" />
        </mxCell>
        <mxCell id="Ti-5W8SZTmlNvOi37wGD-51" value="&lt;font style=&quot;font-size: 14px;&quot;&gt;显示模式&lt;/font&gt;" style="rounded=0;whiteSpace=wrap;html=1;" vertex="1" parent="1">
          <mxGeometry x="275" y="-110" width="75" height="30" as="geometry" />
        </mxCell>
        <mxCell id="Ti-5W8SZTmlNvOi37wGD-53" value="&lt;font style=&quot;font-size: 14px;&quot;&gt;缩放等级&lt;/font&gt;" style="rounded=0;whiteSpace=wrap;html=1;" vertex="1" parent="1">
          <mxGeometry x="190" y="-110" width="75" height="30" as="geometry" />
        </mxCell>
        <mxCell id="Ti-5W8SZTmlNvOi37wGD-54" value="&lt;font color=&quot;#ff0000&quot; style=&quot;font-size: 16px;&quot;&gt;常用开关\选项&lt;br&gt;&lt;/font&gt;" style="shape=callout;whiteSpace=wrap;html=1;perimeter=calloutPerimeter;position2=0.3;size=20;position=0.27;strokeColor=#FF0000;base=20;" vertex="1" parent="1">
          <mxGeometry x="236.5" y="-170" width="113.5" height="50" as="geometry" />
        </mxCell>
        <mxCell id="Ti-5W8SZTmlNvOi37wGD-58" value="" style="shape=image;html=1;verticalLabelPosition=bottom;verticalAlign=top;imageAspect=0;image=img/clipart/Gear_128x128.png" vertex="1" parent="1">
          <mxGeometry x="385" y="-110" width="30" height="30" as="geometry" />
        </mxCell>
        <mxCell id="Ti-5W8SZTmlNvOi37wGD-59" value="&lt;font color=&quot;#ff0000&quot; style=&quot;font-size: 16px;&quot;&gt;不常用的设置&lt;br&gt;&lt;/font&gt;" style="shape=callout;whiteSpace=wrap;html=1;perimeter=calloutPerimeter;position2=0.09;size=20;position=0.09;strokeColor=#FF0000;" vertex="1" parent="1">
          <mxGeometry x="390" y="-170" width="112" height="50" as="geometry" />
        </mxCell>
      </root>
    </mxGraphModel>
  </diagram>
</mxfile>
